<mxfile host="app.diagrams.net" agent="Mozilla/5.0 (Windows NT 10.0; Win64; x64) AppleWebKit/537.36 (KHTML, like Gecko) Chrome/129.0.0.0 Safari/537.36" version="24.7.7">
  <diagram name="Page-1" id="GTzKMR4JSbJzDp2OoLLW">
    <mxGraphModel dx="477" dy="253" grid="1" gridSize="10" guides="1" tooltips="1" connect="1" arrows="1" fold="1" page="1" pageScale="1" pageWidth="850" pageHeight="1100" math="0" shadow="0">
      <root>
        <mxCell id="0" />
        <mxCell id="1" parent="0" />
        <mxCell id="u485T1sFGprL4-medgUI-12" value="" style="rounded=0;whiteSpace=wrap;html=1;" vertex="1" parent="1">
          <mxGeometry x="340" y="410" width="120" height="60" as="geometry" />
        </mxCell>
        <mxCell id="u485T1sFGprL4-medgUI-13" value="" style="rounded=0;whiteSpace=wrap;html=1;" vertex="1" parent="1">
          <mxGeometry x="490" y="290" width="120" height="60" as="geometry" />
        </mxCell>
        <mxCell id="u485T1sFGprL4-medgUI-14" value="" style="rounded=0;whiteSpace=wrap;html=1;" vertex="1" parent="1">
          <mxGeometry x="170" y="290" width="120" height="60" as="geometry" />
        </mxCell>
        <mxCell id="u485T1sFGprL4-medgUI-15" value="PROVIDER" style="rounded=0;whiteSpace=wrap;html=1;" vertex="1" parent="1">
          <mxGeometry x="550" y="160" width="80" height="40" as="geometry" />
        </mxCell>
        <mxCell id="u485T1sFGprL4-medgUI-16" value="USER" style="rounded=0;whiteSpace=wrap;html=1;" vertex="1" parent="1">
          <mxGeometry x="140" y="150" width="120" height="60" as="geometry" />
        </mxCell>
        <mxCell id="u485T1sFGprL4-medgUI-17" value="P_Id" style="ellipse;whiteSpace=wrap;html=1;" vertex="1" parent="1">
          <mxGeometry x="540" y="25" width="60" height="20" as="geometry" />
        </mxCell>
        <mxCell id="u485T1sFGprL4-medgUI-18" value="U_Email_Address" style="ellipse;whiteSpace=wrap;html=1;" vertex="1" parent="1">
          <mxGeometry x="270" y="40" width="120" height="45" as="geometry" />
        </mxCell>
        <mxCell id="u485T1sFGprL4-medgUI-19" value="U_Contact" style="ellipse;whiteSpace=wrap;html=1;" vertex="1" parent="1">
          <mxGeometry x="50" y="80" width="120" height="30" as="geometry" />
        </mxCell>
        <mxCell id="u485T1sFGprL4-medgUI-20" value="U_Id" style="ellipse;whiteSpace=wrap;html=1;" vertex="1" parent="1">
          <mxGeometry x="160" width="120" height="50" as="geometry" />
        </mxCell>
        <mxCell id="u485T1sFGprL4-medgUI-21" value="U_Name" style="ellipse;whiteSpace=wrap;html=1;" vertex="1" parent="1">
          <mxGeometry x="70" y="30" width="80" height="40" as="geometry" />
        </mxCell>
        <mxCell id="u485T1sFGprL4-medgUI-22" value="" style="ellipse;whiteSpace=wrap;html=1;" vertex="1" parent="1">
          <mxGeometry x="340" y="140" width="120" height="80" as="geometry" />
        </mxCell>
        <mxCell id="u485T1sFGprL4-medgUI-23" value="" style="ellipse;whiteSpace=wrap;html=1;" vertex="1" parent="1">
          <mxGeometry x="340" y="140" width="120" height="80" as="geometry" />
        </mxCell>
        <mxCell id="u485T1sFGprL4-medgUI-24" value="" style="ellipse;whiteSpace=wrap;html=1;" vertex="1" parent="1">
          <mxGeometry x="340" y="140" width="120" height="80" as="geometry" />
        </mxCell>
        <mxCell id="u485T1sFGprL4-medgUI-25" value="Fee" style="ellipse;whiteSpace=wrap;html=1;" vertex="1" parent="1">
          <mxGeometry x="510" y="110" width="60" height="20" as="geometry" />
        </mxCell>
        <mxCell id="u485T1sFGprL4-medgUI-26" value="P_Type" style="ellipse;whiteSpace=wrap;html=1;" vertex="1" parent="1">
          <mxGeometry x="500" y="80" width="60" height="25" as="geometry" />
        </mxCell>
        <mxCell id="u485T1sFGprL4-medgUI-27" value="P_Certification_Status" style="ellipse;whiteSpace=wrap;html=1;" vertex="1" parent="1">
          <mxGeometry x="650" y="90" width="120" height="40" as="geometry" />
        </mxCell>
        <mxCell id="u485T1sFGprL4-medgUI-28" value="P_Skills" style="ellipse;whiteSpace=wrap;html=1;" vertex="1" parent="1">
          <mxGeometry x="660" y="55" width="90" height="30" as="geometry" />
        </mxCell>
        <mxCell id="u485T1sFGprL4-medgUI-29" value="P_Phone" style="ellipse;whiteSpace=wrap;html=1;" vertex="1" parent="1">
          <mxGeometry x="495" y="50" width="75" height="20" as="geometry" />
        </mxCell>
        <mxCell id="u485T1sFGprL4-medgUI-30" value="P_Name" style="ellipse;whiteSpace=wrap;html=1;" vertex="1" parent="1">
          <mxGeometry x="620" y="20" width="90" height="30" as="geometry" />
        </mxCell>
      </root>
    </mxGraphModel>
  </diagram>
</mxfile>
